<svg width="853" height="740" viewBox="0 0 853 740" fill="none" xmlns="http://www.w3.org/2000/svg">
<ellipse cx="462.5" cy="370" rx="390.5" ry="370" fill="white" fill-opacity="0.15"/>
<circle cx="208" cy="414" r="70" fill="#524F4F"/>
<rect x="88" y="300" width="506" height="122" fill="#002D33"/>
<path d="M129.144 422H88.1045L113.754 301.35H154.984L129.144 422ZM224.937 336.31C225.317 334.41 225.507 331.813 225.507 328.52C225.507 326.62 225.38 324.783 225.127 323.01C224.874 321.11 224.43 319.463 223.797 318.07C223.164 316.55 222.214 315.41 220.947 314.65C219.68 313.763 218.034 313.32 216.007 313.32C213.727 313.32 211.637 313.827 209.737 314.84C207.837 315.853 206.127 317.183 204.607 318.83C203.214 320.35 202.074 322.187 201.187 324.34C200.427 326.367 200.047 328.52 200.047 330.8C200.047 334.093 200.87 336.627 202.517 338.4C204.29 340.173 206.57 341.63 209.357 342.77C212.144 343.91 215.31 344.86 218.857 345.62C222.404 346.38 226.077 347.267 229.877 348.28C233.044 349.167 236.21 350.307 239.377 351.7C242.544 353.093 245.33 354.993 247.737 357.4C250.27 359.68 252.297 362.72 253.817 366.52C255.337 370.193 256.097 374.817 256.097 380.39C256.097 388.37 254.514 395.083 251.347 400.53C248.18 405.977 243.81 410.41 238.237 413.83C232.664 417.25 226.014 419.72 218.287 421.24C210.687 422.76 202.39 423.52 193.397 423.52C184.277 423.52 176.804 422.95 170.977 421.81C165.277 420.543 160.78 419.213 157.487 417.82C153.56 416.173 150.647 414.273 148.747 412.12L155.207 386.09H188.647C188.52 387.23 188.394 388.813 188.267 390.84C188.14 392.74 188.077 394.26 188.077 395.4C188.077 396.92 188.267 398.503 188.647 400.15C189.027 401.797 189.597 403.317 190.357 404.71C191.244 406.103 192.447 407.243 193.967 408.13C195.487 409.017 197.387 409.46 199.667 409.46C202.2 409.46 204.417 408.89 206.317 407.75C208.344 406.61 209.99 405.217 211.257 403.57C212.65 401.797 213.664 399.897 214.297 397.87C215.057 395.717 215.437 393.627 215.437 391.6C215.437 388.813 214.74 386.47 213.347 384.57C212.08 382.67 210.307 381.087 208.027 379.82C205.747 378.427 203.087 377.287 200.047 376.4C197.134 375.387 194.094 374.373 190.927 373.36C187.887 372.473 184.657 371.397 181.237 370.13C177.944 368.863 174.904 367.09 172.117 364.81C169.33 362.53 166.987 359.68 165.087 356.26C163.314 352.713 162.427 348.217 162.427 342.77C162.427 334.663 164.454 327.887 168.507 322.44C172.687 316.867 177.88 312.37 184.087 308.95C190.42 305.53 197.324 303.123 204.797 301.73C212.27 300.21 219.364 299.45 226.077 299.45C234.944 299.45 242.544 300.527 248.877 302.68C255.337 304.707 260.214 307.113 263.507 309.9L256.477 336.31H224.937ZM287.241 301.35H367.231L364.191 315.79H325.431L317.451 352.46H349.941L346.901 366.71H314.411L305.671 407.37H344.431L341.581 422H261.591L287.241 301.35ZM475.517 330.04C475.517 337.513 473.427 344.417 469.247 350.75C465.067 357.083 458.164 361.897 448.537 365.19L470.577 422H428.207L411.487 369.37H409.397L398.187 422H357.147L382.797 301.35H432.767C438.594 301.35 444.104 301.73 449.297 302.49C454.491 303.123 458.987 304.517 462.787 306.67C466.714 308.697 469.817 311.61 472.097 315.41C474.377 319.083 475.517 323.96 475.517 330.04ZM420.797 357.21C424.091 357.21 426.877 356.133 429.157 353.98C431.564 351.7 433.464 348.977 434.857 345.81C436.377 342.643 437.454 339.287 438.087 335.74C438.721 332.067 439.037 328.9 439.037 326.24C439.037 322.947 438.467 320.16 437.327 317.88C436.187 315.473 433.717 314.27 429.917 314.27H421.367L411.867 357.21H420.797ZM552.242 336.31C552.622 334.41 552.812 331.813 552.812 328.52C552.812 326.62 552.685 324.783 552.432 323.01C552.179 321.11 551.735 319.463 551.102 318.07C550.469 316.55 549.519 315.41 548.252 314.65C546.985 313.763 545.339 313.32 543.312 313.32C541.032 313.32 538.942 313.827 537.042 314.84C535.142 315.853 533.432 317.183 531.912 318.83C530.519 320.35 529.379 322.187 528.492 324.34C527.732 326.367 527.352 328.52 527.352 330.8C527.352 334.093 528.175 336.627 529.822 338.4C531.595 340.173 533.875 341.63 536.662 342.77C539.449 343.91 542.615 344.86 546.162 345.62C549.709 346.38 553.382 347.267 557.182 348.28C560.349 349.167 563.515 350.307 566.682 351.7C569.849 353.093 572.635 354.993 575.042 357.4C577.575 359.68 579.602 362.72 581.122 366.52C582.642 370.193 583.402 374.817 583.402 380.39C583.402 388.37 581.819 395.083 578.652 400.53C575.485 405.977 571.115 410.41 565.542 413.83C559.969 417.25 553.319 419.72 545.592 421.24C537.992 422.76 529.695 423.52 520.702 423.52C511.582 423.52 504.109 422.95 498.282 421.81C492.582 420.543 488.085 419.213 484.792 417.82C480.865 416.173 477.952 414.273 476.052 412.12L482.512 386.09H515.952C515.825 387.23 515.699 388.813 515.572 390.84C515.445 392.74 515.382 394.26 515.382 395.4C515.382 396.92 515.572 398.503 515.952 400.15C516.332 401.797 516.902 403.317 517.662 404.71C518.549 406.103 519.752 407.243 521.272 408.13C522.792 409.017 524.692 409.46 526.972 409.46C529.505 409.46 531.722 408.89 533.622 407.75C535.649 406.61 537.295 405.217 538.562 403.57C539.955 401.797 540.969 399.897 541.602 397.87C542.362 395.717 542.742 393.627 542.742 391.6C542.742 388.813 542.045 386.47 540.652 384.57C539.385 382.67 537.612 381.087 535.332 379.82C533.052 378.427 530.392 377.287 527.352 376.4C524.439 375.387 521.399 374.373 518.232 373.36C515.192 372.473 511.962 371.397 508.542 370.13C505.249 368.863 502.209 367.09 499.422 364.81C496.635 362.53 494.292 359.68 492.392 356.26C490.619 352.713 489.732 348.217 489.732 342.77C489.732 334.663 491.759 327.887 495.812 322.44C499.992 316.867 505.185 312.37 511.392 308.95C517.725 305.53 524.629 303.123 532.102 301.73C539.575 300.21 546.669 299.45 553.382 299.45C562.249 299.45 569.849 300.527 576.182 302.68C582.642 304.707 587.519 307.113 590.812 309.9L583.782 336.31H552.242Z" fill="black"/>
<path d="M315.231 453.28C315.231 456.427 314.351 459.333 312.591 462C310.831 464.667 307.924 466.693 303.871 468.08L313.151 492H295.311L288.271 469.84H287.391L282.671 492H265.391L276.191 441.2H297.231C299.684 441.2 302.004 441.36 304.191 441.68C306.377 441.947 308.271 442.533 309.871 443.44C311.524 444.293 312.831 445.52 313.791 447.12C314.751 448.667 315.231 450.72 315.231 453.28ZM292.191 464.72C293.577 464.72 294.751 464.267 295.711 463.36C296.724 462.4 297.524 461.253 298.111 459.92C298.751 458.587 299.204 457.173 299.471 455.68C299.737 454.133 299.871 452.8 299.871 451.68C299.871 450.293 299.631 449.12 299.151 448.16C298.671 447.147 297.631 446.64 296.031 446.64H292.431L288.431 464.72H292.191ZM332.049 475.92C331.836 477.093 331.676 478.213 331.569 479.28C331.516 480.347 331.489 481.307 331.489 482.16C331.489 482.64 331.516 483.173 331.569 483.76C331.623 484.347 331.729 484.907 331.889 485.44C332.103 485.92 332.369 486.347 332.689 486.72C333.063 487.04 333.569 487.2 334.209 487.2C334.689 487.2 335.223 487.04 335.809 486.72C336.449 486.4 337.063 485.947 337.649 485.36C338.289 484.773 338.876 484.053 339.409 483.2C339.996 482.347 340.449 481.387 340.769 480.32H353.889L351.809 488.88C350.743 489.573 349.516 490.16 348.129 490.64C346.743 491.12 345.276 491.52 343.729 491.84C342.183 492.107 340.609 492.293 339.009 492.4C337.409 492.56 335.889 492.64 334.449 492.64C331.783 492.64 329.303 492.4 327.009 491.92C324.716 491.44 322.716 490.613 321.009 489.44C319.303 488.267 317.943 486.72 316.929 484.8C315.969 482.827 315.489 480.4 315.489 477.52C315.489 474.907 315.889 472.347 316.689 469.84C317.543 467.333 318.929 465.12 320.849 463.2C322.823 461.227 325.436 459.653 328.689 458.48C331.996 457.307 336.103 456.72 341.009 456.72C346.343 456.72 350.343 457.547 353.009 459.2C355.729 460.853 357.089 463.44 357.089 466.96C357.089 468.4 356.876 469.973 356.449 471.68C356.023 473.333 355.383 474.747 354.529 475.92H332.049ZM342.689 466.4C342.689 464.747 342.423 463.627 341.889 463.04C341.356 462.453 340.716 462.16 339.969 462.16C339.116 462.16 338.316 462.453 337.569 463.04C336.876 463.573 336.236 464.32 335.649 465.28C335.063 466.187 334.529 467.253 334.049 468.48C333.569 469.653 333.169 470.907 332.849 472.24H341.969C342.076 471.6 342.183 470.933 342.289 470.24C342.396 469.653 342.476 469.013 342.529 468.32C342.636 467.627 342.689 466.987 342.689 466.4ZM370.999 505.44H354.679L364.759 457.6H377.799L379.239 462.72H379.719C381.639 460.693 383.773 459.253 386.119 458.4C388.519 457.493 390.866 457.04 393.159 457.04C395.026 457.04 396.573 457.333 397.799 457.92C399.079 458.453 400.093 459.2 400.839 460.16C401.586 461.12 402.119 462.267 402.439 463.6C402.759 464.933 402.919 466.347 402.919 467.84C402.919 468.587 402.866 469.707 402.759 471.2C402.653 472.693 402.413 474.373 402.039 476.24C401.666 478.053 401.133 479.947 400.439 481.92C399.746 483.84 398.813 485.6 397.639 487.2C396.519 488.8 395.079 490.107 393.319 491.12C391.613 492.133 389.559 492.64 387.159 492.64C385.826 492.64 384.519 492.48 383.239 492.16C382.013 491.84 380.893 491.413 379.879 490.88C378.866 490.347 377.959 489.733 377.159 489.04C376.413 488.293 375.853 487.547 375.479 486.8H374.999L370.999 505.44ZM379.479 484.88C380.759 484.88 381.826 484.213 382.679 482.88C383.533 481.493 384.226 479.893 384.759 478.08C385.293 476.213 385.666 474.373 385.879 472.56C386.146 470.693 386.279 469.307 386.279 468.4C386.279 467.333 386.093 466.453 385.719 465.76C385.399 465.067 384.786 464.72 383.879 464.72C382.866 464.72 381.906 465.093 380.999 465.84C380.093 466.533 379.426 467.147 378.999 467.68L375.879 482.32C376.306 482.907 376.813 483.493 377.399 484.08C377.986 484.613 378.679 484.88 379.479 484.88ZM434.918 457.6H451.238L443.878 492H430.918L429.478 486.88H428.998C427.611 488.533 425.718 489.92 423.318 491.04C420.971 492.107 418.598 492.64 416.198 492.64C412.998 492.64 410.491 491.84 408.678 490.24C406.865 488.587 405.958 486.453 405.958 483.84C405.958 482.507 406.171 480.853 406.598 478.88C407.078 476.853 407.505 474.96 407.878 473.2L411.238 457.6H427.478L423.478 476.32C423.371 476.747 423.265 477.253 423.158 477.84C423.051 478.427 422.945 479.013 422.838 479.6C422.731 480.133 422.625 480.667 422.518 481.2C422.465 481.68 422.438 482.08 422.438 482.4C422.438 483.2 422.598 483.893 422.918 484.48C423.291 485.013 423.931 485.28 424.838 485.28C425.798 485.28 426.705 484.96 427.558 484.32C428.411 483.68 429.078 483.067 429.558 482.48L434.918 457.6ZM469.315 475.92C469.102 477.093 468.942 478.213 468.835 479.28C468.782 480.347 468.755 481.307 468.755 482.16C468.755 482.64 468.782 483.173 468.835 483.76C468.888 484.347 468.995 484.907 469.155 485.44C469.368 485.92 469.635 486.347 469.955 486.72C470.328 487.04 470.835 487.2 471.475 487.2C471.955 487.2 472.488 487.04 473.075 486.72C473.715 486.4 474.328 485.947 474.915 485.36C475.555 484.773 476.142 484.053 476.675 483.2C477.262 482.347 477.715 481.387 478.035 480.32H491.155L489.075 488.88C488.008 489.573 486.782 490.16 485.395 490.64C484.008 491.12 482.542 491.52 480.995 491.84C479.448 492.107 477.875 492.293 476.275 492.4C474.675 492.56 473.155 492.64 471.715 492.64C469.048 492.64 466.568 492.4 464.275 491.92C461.982 491.44 459.982 490.613 458.275 489.44C456.568 488.267 455.208 486.72 454.195 484.8C453.235 482.827 452.755 480.4 452.755 477.52C452.755 474.907 453.155 472.347 453.955 469.84C454.808 467.333 456.195 465.12 458.115 463.2C460.088 461.227 462.702 459.653 465.955 458.48C469.262 457.307 473.368 456.72 478.275 456.72C483.608 456.72 487.608 457.547 490.275 459.2C492.995 460.853 494.355 463.44 494.355 466.96C494.355 468.4 494.142 469.973 493.715 471.68C493.288 473.333 492.648 474.747 491.795 475.92H469.315ZM479.955 466.4C479.955 464.747 479.688 463.627 479.155 463.04C478.622 462.453 477.982 462.16 477.235 462.16C476.382 462.16 475.582 462.453 474.835 463.04C474.142 463.573 473.502 464.32 472.915 465.28C472.328 466.187 471.795 467.253 471.315 468.48C470.835 469.653 470.435 470.907 470.115 472.24H479.235C479.342 471.6 479.448 470.933 479.555 470.24C479.662 469.653 479.742 469.013 479.795 468.32C479.902 467.627 479.955 466.987 479.955 466.4ZM520.185 467.68C520.238 467.413 520.292 467.147 520.345 466.88C520.398 466.613 520.425 466.32 520.425 466C520.425 465.04 520.238 464.16 519.865 463.36C519.545 462.507 518.878 462.08 517.865 462.08C516.958 462.08 516.052 462.48 515.145 463.28C514.238 464.027 513.785 465.04 513.785 466.32C513.785 467.173 513.998 467.867 514.425 468.4C514.905 468.88 515.518 469.28 516.265 469.6C517.012 469.92 517.838 470.187 518.745 470.4C519.705 470.613 520.638 470.827 521.545 471.04C522.825 471.36 524.025 471.76 525.145 472.24C526.318 472.667 527.358 473.253 528.265 474C529.172 474.747 529.892 475.68 530.425 476.8C530.958 477.867 531.225 479.2 531.225 480.8C531.225 483.04 530.692 484.933 529.625 486.48C528.612 487.973 527.172 489.2 525.305 490.16C523.492 491.067 521.332 491.707 518.825 492.08C516.372 492.453 513.732 492.64 510.905 492.64C506.585 492.64 503.012 492.32 500.185 491.68C497.358 491.04 495.385 490.427 494.265 489.84L495.945 481.84H506.745C506.692 482.107 506.665 482.373 506.665 482.64C506.665 482.853 506.665 483.093 506.665 483.36C506.665 484.587 506.932 485.573 507.465 486.32C508.052 487.013 509.038 487.36 510.425 487.36C511.972 487.36 513.065 486.933 513.705 486.08C514.398 485.173 514.745 484.347 514.745 483.6C514.745 482.853 514.452 482.213 513.865 481.68C513.332 481.093 512.638 480.613 511.785 480.24C510.932 479.813 509.972 479.467 508.905 479.2C507.892 478.88 506.905 478.587 505.945 478.32C505.252 478.16 504.452 477.893 503.545 477.52C502.692 477.147 501.865 476.613 501.065 475.92C500.265 475.227 499.598 474.347 499.065 473.28C498.532 472.16 498.265 470.773 498.265 469.12C498.265 466.773 498.825 464.827 499.945 463.28C501.118 461.68 502.612 460.4 504.425 459.44C506.292 458.48 508.372 457.787 510.665 457.36C513.012 456.933 515.358 456.72 517.705 456.72C520.638 456.72 523.412 456.987 526.025 457.52C528.638 458.053 530.772 458.747 532.425 459.6L530.585 467.68H520.185ZM537.664 457.6C539.638 457.173 541.371 456.693 542.864 456.16C544.358 455.627 545.718 454.96 546.944 454.16C548.224 453.36 549.424 452.373 550.544 451.2C551.718 450.027 552.971 448.587 554.304 446.88H562.544L560.224 457.6H566.464L565.424 462.96H559.104L555.824 478.56C555.558 479.787 555.344 480.88 555.184 481.84C555.024 482.8 554.944 483.547 554.944 484.08C554.944 485.147 555.318 485.813 556.064 486.08C556.864 486.347 558.331 486.48 560.464 486.48L559.264 492C558.891 492.107 558.304 492.187 557.504 492.24C556.758 492.293 555.904 492.347 554.944 492.4C554.038 492.507 553.078 492.56 552.064 492.56C551.104 492.613 550.251 492.64 549.504 492.64C548.171 492.64 546.864 492.533 545.584 492.32C544.304 492.16 543.158 491.813 542.144 491.28C541.131 490.693 540.304 489.867 539.664 488.8C539.078 487.733 538.784 486.293 538.784 484.48C538.784 483.84 538.811 483.04 538.864 482.08C538.971 481.12 539.158 480.053 539.424 478.88L542.784 462.96H536.544L537.664 457.6ZM589.809 456.72C596.156 456.72 600.769 457.84 603.649 460.08C606.689 462.427 608.209 466.32 608.209 471.76C608.209 475.12 607.649 478.16 606.529 480.88C605.409 483.547 603.836 485.76 601.809 487.52C597.756 490.933 591.889 492.64 584.209 492.64C577.649 492.64 572.956 491.387 570.129 488.88C567.089 486.267 565.569 482.347 565.569 477.12C565.569 473.653 566.263 470.507 567.649 467.68C569.089 464.853 571.143 462.507 573.809 460.64C577.703 458.027 583.036 456.72 589.809 456.72ZM584.369 487.2C585.703 487.2 586.849 486.453 587.809 484.96C588.823 483.467 589.623 481.653 590.209 479.52C590.796 477.333 591.223 475.093 591.489 472.8C591.809 470.453 591.969 468.427 591.969 466.72C591.969 465.227 591.809 464.107 591.489 463.36C591.223 462.56 590.609 462.16 589.649 462.16C588.209 462.16 586.956 462.933 585.889 464.48C584.876 466.027 584.049 467.867 583.409 470C582.769 472.133 582.289 474.32 581.969 476.56C581.703 478.8 581.569 480.613 581.569 482C581.569 485.467 582.503 487.2 584.369 487.2ZM635.185 467.68C635.238 467.413 635.292 467.147 635.345 466.88C635.398 466.613 635.425 466.32 635.425 466C635.425 465.04 635.238 464.16 634.865 463.36C634.545 462.507 633.878 462.08 632.865 462.08C631.958 462.08 631.052 462.48 630.145 463.28C629.238 464.027 628.785 465.04 628.785 466.32C628.785 467.173 628.998 467.867 629.425 468.4C629.905 468.88 630.518 469.28 631.265 469.6C632.012 469.92 632.838 470.187 633.745 470.4C634.705 470.613 635.638 470.827 636.545 471.04C637.825 471.36 639.025 471.76 640.145 472.24C641.318 472.667 642.358 473.253 643.265 474C644.172 474.747 644.892 475.68 645.425 476.8C645.958 477.867 646.225 479.2 646.225 480.8C646.225 483.04 645.692 484.933 644.625 486.48C643.612 487.973 642.172 489.2 640.305 490.16C638.492 491.067 636.332 491.707 633.825 492.08C631.372 492.453 628.732 492.64 625.905 492.64C621.585 492.64 618.012 492.32 615.185 491.68C612.358 491.04 610.385 490.427 609.265 489.84L610.945 481.84H621.745C621.692 482.107 621.665 482.373 621.665 482.64C621.665 482.853 621.665 483.093 621.665 483.36C621.665 484.587 621.932 485.573 622.465 486.32C623.052 487.013 624.038 487.36 625.425 487.36C626.972 487.36 628.065 486.933 628.705 486.08C629.398 485.173 629.745 484.347 629.745 483.6C629.745 482.853 629.452 482.213 628.865 481.68C628.332 481.093 627.638 480.613 626.785 480.24C625.932 479.813 624.972 479.467 623.905 479.2C622.892 478.88 621.905 478.587 620.945 478.32C620.252 478.16 619.452 477.893 618.545 477.52C617.692 477.147 616.865 476.613 616.065 475.92C615.265 475.227 614.598 474.347 614.065 473.28C613.532 472.16 613.265 470.773 613.265 469.12C613.265 466.773 613.825 464.827 614.945 463.28C616.118 461.68 617.612 460.4 619.425 459.44C621.292 458.48 623.372 457.787 625.665 457.36C628.012 456.933 630.358 456.72 632.705 456.72C635.638 456.72 638.412 456.987 641.025 457.52C643.638 458.053 645.772 458.747 647.425 459.6L645.585 467.68H635.185Z" fill="black"/>
<circle cx="709" cy="414" r="70" fill="#524F4F"/>
<path d="M596 419V101C770.5 133 839.833 273 841 419H780.5C774.5 308 632.5 323.5 639.5 419H596Z" fill="#1E1E1E" stroke="black" stroke-width="5"/>
<path d="M634 297.355V159.855C716 143.055 762.167 244.521 775 297.355H634Z" fill="#C1F6EA" stroke="black" stroke-width="5"/>
<rect x="758" y="255" width="20" height="45" rx="3" fill="#002D33"/>
</svg>
